Patient4_TMGait_0pt6_01_left_19_EMG.mot
version=1
nRows=27
nColumns=33
inDegrees=no
endheader
time	1LAddLong	2LGlutMax	3LGlutMed	4LIliopsoas	5LSemiMemb	6LBicFemLong	7LRecFem	8LVastMed	9LVastLat	10LGasMed	11LTibAnt	12lTibPost	13LPeroneusLong	14LSol	15LExtDigLong	16LFlexDigLong	17RAddLong	18RGlutMax	19RGlutMed	20RIliopsoas	21RSemiMemb	22RBicFemLong	23RRecFem	24RVastMed	25RVastLat	26RGasMed	27RTibAnt	28RTibPost	29RPeroneusLong	30RSol	31RExtDigLong	32RFlexDigLong
23.51	0.033875	0.67841	-0.066986	-0.002441	0.061493	-0.1918	-0.19119	0.007324	-0.57281	-0.16678	0.10696	0.016785	-0.05188	-0.20172	0.24918	-0.27741	-0.17685	0.51987	0.30685	0.10544	-0.20065	0.10101	0.49362	-0.13641	0.02655	0.014343	0.35492	-0.002594	0.10986	-0.26306	-0.005493	-0.002441
23.511	0.033569	0.75714	-0.11353	0.023499	0.037994	-0.15945	-0.15671	-0.005035	-0.81345	-0.13534	0.072174	0.015564	-0.050507	-0.40359	0.21805	0.40878	-0.13672	0.45548	0.26047	0.076141	-0.1474	0.29373	0.52734	-0.070343	0.050354	0.014038	-1.0655	-0.000153	0.013885	-0.081177	-0.000916	-0.000763
23.512	0.011139	0.89386	-0.075531	0.011292	0.023193	-0.27329	-0.10757	-0.018158	-0.97305	-0.096741	0.060883	0.016174	-0.008698	-0.47043	0.3093	-0.07019	-0.051575	0.32516	0.27237	-0.037994	-0.1001	0.33279	0.52689	-0.085602	0.024109	0.011444	-1.7072	-0.007782	0.005646	0.10452	-0.004883	-0.01236
23.513	0.006561	1.0379	0.001831	0.002899	0.023346	-0.30701	-0.12756	-0.002441	-0.7695	0.00351	0.030975	0.006561	0.043945	-0.37903	0.16678	-0.27969	-0.00885	0.30655	0.14954	-0.081635	-0.083008	0.31448	0.54321	-0.029449	0.0383	0.000763	-0.67001	-0.005951	-0.036469	0.14969	-0.002136	-0.012817
23.514	-0.001373	1.1331	0.10696	0.013428	0.010071	-0.10101	-0.17273	0.008087	-0.51209	0.061035	-0.026398	-0.000763	0.073242	-0.30304	0.096436	0.072021	0.018158	0.29388	0.079651	-0.031586	-0.028839	0.33295	0.5864	-0.030823	0.058899	-0.000305	-0.17761	-0.005798	-0.14358	0.13458	-0.002136	-0.022125
23.515	0.016327	1.1938	0.19409	0.000458	-0.01709	0.065918	-0.18738	0.005646	-0.30151	0.069122	-0.013275	0.003967	0.057983	-0.26154	0.25192	0.019836	0.000153	0.23727	0.21011	-0.017853	0.032959	0.19608	0.62286	-0.10208	0.036316	-0.001526	-0.10468	0.005646	-0.16815	0.14954	-0.002899	-0.025635
23.516	0.012817	1.178	0.19592	0.001373	-0.0383	0.065765	-0.15808	-0.005951	-0.17395	0.11459	0.10101	0.00412	-0.009613	-0.12405	0.19394	-0.20187	0.00473	0.19638	0.1915	0.000763	0.053406	0.17197	0.61966	-0.11765	0.03418	-0.008087	-0.024414	-0.000916	-0.2385	0.063782	-0.004272	-0.023041
23.517	0.018463	1.2505	0.20309	0.005341	-0.074005	0.016632	-0.15076	-0.00946	-0.080414	0.087891	0.092163	0.013428	-0.021362	-0.11231	-0.14221	0.21652	0.009766	0.16205	0.02533	0.01358	0.048981	0.027618	0.62347	-0.001221	0.0354	-0.004425	0.10468	-0.000305	-0.27084	0.11475	-0.001831	-0.024872
23.518	0.014191	1.2547	0.081177	-0.006714	-0.036163	-0.23651	-0.159	-0.004578	-0.012665	0.066223	0.089417	0.011902	-0.045319	-0.19577	-0.18768	0.13397	0.031586	0.11688	-0.025482	-0.044403	0.04303	-0.068665	0.6076	0.001526	0.045624	-0.002747	0.34637	-0.000763	-0.16251	0.26794	-0.003052	-0.019989
23.519	0.016479	1.4778	0.007629	0.001373	0.010681	-0.18951	-0.12756	-0.001831	0.01297	0.043182	0.068512	0.003204	-0.022888	-0.089264	-0.067749	-0.17975	0.03006	0.029755	0.081482	-0.040131	0.034332	-0.056458	0.62393	0.010681	0.049896	0.00946	0.49698	0.005798	0.029297	0.14923	-0.003357	-0.012512
23.52	0.016632	1.5695	-0.048828	-0.010681	-0.017395	-0.072174	-0.14557	0.004272	-0.055237	0.007324	-0.048981	0.017548	0.072479	0.088043	-0.020752	-0.15076	0.027008	-0.034332	-0.036469	-0.000458	0.005951	0.040131	0.61645	0.000763	0.045013	0.012512	0.45609	-0.000153	0.14114	-0.007629	-0.00351	-0.00351
23.521	0.021667	1.6125	-0.000153	0.007782	-0.013428	0.072632	-0.12573	0.018768	-0.080261	0.019531	-0.021362	0.013275	0.058746	0.15106	0.010376	0.12619	0.023651	-0.083466	0.09552	-0.055084	-0.026245	0.088196	0.61417	0.053864	0.057526	0.005493	0.37872	-0.002289	0.017548	-0.058289	-0.005341	-0.010529
23.522	0.014343	1.6681	0.000153	0.014801	-0.018158	0.18341	-0.067139	0.024414	-0.22125	0.021057	0.014954	0.014801	0.002441	0.1062	0.09964	0.20386	0.034943	-0.13184	0.14938	0.031433	-0.058441	0.065765	0.57724	0.072174	0.047913	0.000763	-0.57236	-0.000763	0.009918	0.001526	-0.00412	-0.012817
23.523	0.018768	1.7021	0.025787	0.001068	-0.000153	0.18265	-0.11108	0.015564	-0.28793	0.012665	-0.000305	0.025787	0.014191	0.012665	0.053558	0.076141	0.002594	-0.19363	0.066071	0.056915	-0.094147	-0.091705	0.57846	-0.00824	0.040283	-0.000763	-0.79941	0.005188	0.01236	-0.086517	-0.001984	-0.020752
23.524	0.016174	1.6408	0.001831	0.002747	0.000458	-0.081787	-0.16098	0.010834	-0.20233	0.022736	-0.026093	0.015411	0.034485	0.012817	0.064545	0.07782	-0.046082	-0.32394	0.076447	0.053711	-0.11749	-0.12146	0.58975	-0.063324	0.037537	0.006561	-0.21378	-0.002136	-0.041351	-0.095062	-0.000458	-0.022888
23.525	0.013123	1.553	0.10193	-0.014954	-0.009766	-0.036316	-0.16785	0.000458	-0.018616	0.097504	0.029449	0.034637	-0.010834	0.060425	0.012207	-0.11459	-0.069427	-0.34637	0.10193	0.055389	-0.13046	-0.092621	0.53207	-0.063477	0.017548	0.001678	0.45242	-0.003204	-0.064697	-0.075684	-0.001221	-0.025024
23.526	0.010529	1.4278	0.023346	-0.011902	-0.015259	0.15335	-0.15839	0.000153	0.074463	0.16388	0.019989	0.023041	-0.009766	0.001526	-0.066528	-0.056	-0.014954	-0.37979	0.091858	0.082245	-0.1358	-0.10101	0.58014	-0.10468	-0.016785	-0.000458	0.61462	-0.003357	-0.1445	-0.014038	-0.001526	-0.021973
23.527	0.007477	1.1981	-0.11444	-0.009003	-0.011902	0.016785	-0.19455	0.000458	0.000305	0.15091	-0.018005	0.022278	0.004883	-0.10437	-0.24399	0.028381	0.021057	-0.53925	-0.06012	0.080719	-0.14114	-0.066833	0.57342	-0.1265	-0.010681	0.005646	0.12985	-0.003204	-0.021667	0.06134	-0.001831	-0.021515
23.528	0.009918	1.0193	-0.078888	-0.005341	0.007172	-0.18677	-0.18356	-0.002594	0.00412	0.14542	0.006409	0.016327	-0.001221	-0.013428	-0.27466	-0.017853	0.041199	-0.50888	-0.05661	0.038147	-0.16312	-0.082397	0.61645	-0.16052	-0.030518	0.012817	-0.25024	-0.006409	0.10895	0.11047	-0.001678	-0.019989
23.529	0.006409	0.89371	0.054626	0.000153	0.014343	-0.31952	-0.16052	-0.009155	0.02533	0.112	-0.004425	0.016632	0.000153	-0.03418	-0.13702	-0.014801	0.096741	-0.51926	-0.034637	0.011139	-0.16419	-0.12192	0.59433	-0.17487	-0.02243	0.003815	-0.50384	-0.003204	0.063477	0.16983	-0.001678	-0.02655
23.53	0.006866	0.75592	0.10056	0.022888	0.003815	-0.33402	-0.094604	-0.00885	0.031738	-0.074615	-0.013123	0.023499	0.003357	-0.067139	-0.057831	0.037537	0.11078	-0.49942	-0.001984	-0.03479	-0.17929	-0.083008	0.60165	-0.16724	-0.040741	-0.003357	-0.50781	-0.003357	-0.009613	0.25543	-0.003815	-0.017395
23.531	0.00412	0.62592	-0.018158	0.016937	0.000305	-0.25574	-0.13931	-0.018616	0.098267	-0.12634	0.003815	0.021362	0.019684	-0.088806	0.014038	0.14618	0.1564	-0.66284	-0.072479	-0.010834	-0.16312	-0.075836	0.59753	-0.11459	-0.015564	0.003052	-0.63461	-0.007172	-0.022583	0.14648	-0.003662	-0.026398
23.532	0.005341	0.50384	-0.13031	-0.003357	-0.000916	-0.12344	-0.1564	-0.033569	0.22644	-0.052185	0.03067	0.019531	-0.002289	-0.050812	0.054474	0.009155	0.19898	-0.6369	-0.1413	-0.000153	-0.1683	-0.12787	0.60898	-0.14236	-0.02243	0.005035	-0.3006	0.000305	-0.092316	0.06012	-0.002594	-0.023956
23.533	0.007477	0.3035	-0.27008	-0.005341	0.012512	-0.015717	-0.1033	-0.028229	0.2684	-0.057373	0.062103	0.027771	0.00473	0.017395	0.072327	-0.081024	0.15106	-0.63263	-0.11154	0.050964	-0.17609	-0.22492	0.6073	-0.24216	-0.043945	0.002289	0.1683	-0.000916	-0.16113	-0.000153	-0.006714	-0.032806
23.534	-0.000916	0.096741	-0.093994	0.011292	0.006714	0.033569	-0.035706	-0.035248	0.21088	-0.098114	0.027618	0.021362	0.00061	0.027161	0.063019	-0.1062	0.056	-0.63614	-0.11261	0.19516	-0.17395	-0.29511	0.5838	-0.2272	-0.050049	0.008698	0.06073	0.001068	-0.082855	-0.019379	-0.002136	-0.018158
23.535	0.001526	-0.092926	-0.098877	0.011902	-0.030823	0.018768	-0.072327	-0.028992	0.11612	-0.12817	-0.022278	0.035706	-0.004272	-0.023956	0.04303	-0.068817	0.012817	-0.66544	-0.18799	0.15152	-0.16129	-0.25192	0.62195	-0.17441	-0.055847	0.013885	-0.23163	-0.002747	0.058289	-0.052185	-0.001373	-0.012817
23.536	0.002136	-0.21011	-0.10483	0.003357	-0.066071	0.075378	-0.089417	-0.009766	0.086823	-0.10056	-0.010223	0.057526	-0.024261	-0.036774	0.056	0.14999	-0.019226	-0.64712	-0.12573	0.005188	-0.1181	-0.11093	0.56137	-0.14603	-0.025177	0.00824	-0.31967	-0.004425	0.22568	-0.07782	-0.005951	-0.01358
